<?xml version="1.0" encoding="UTF-8"?>
<svg viewBox="0 0 436 59" xmlns="http://www.w3.org/2000/svg">
<path d="m34.932 0.61929c-15.675-3.2767-31.037 6.7754-34.313 22.454-3.276 15.679 6.7738 31.044 22.449 34.321 15.675 3.2768 31.037-6.7754 34.313-22.454 3.2761-15.679-6.7737-31.044-22.449-34.321z" fill="#fff"/>
<path d="m21.633 26.129c-8.5881 2.4934-15.766-2.9504-17.907-7.2192-0.57428 1.436-1.0311 2.9503-1.3574 4.5168-0.13052 0.6398-0.23495 1.2794-0.3263 1.9061-0.02611 0.1566-0.03913 0.3133-0.05218 0.4699-0.02611 0.235-0.0522 0.4569-0.0783 0.692-0.02611 0.3263-0.0522 0.6527-0.07831 0.979v0.1827c-0.0261 0.444-0.03916 0.8878-0.03916 1.3447 0 0.94 0.0522 1.8538 0.14356 2.7677v0.0522c0.05221 0.4177 0.10442 0.8354 0.16967 1.2402 0.01305 0.0914 0.02612 0.1828 0.05221 0.2742 0.05222 0.2871 0.10441 0.5874 0.15663 0.8745 0.03915 0.209 0.09137 0.4309 0.13053 0.6398 0.03914 0.1566 0.06523 0.3133 0.10439 0.4699 0.0783 0.3395 0.16969 0.6789 0.26105 1.0053l0.02609 0.0783c0.78309 2.7806 2.01 5.4046 3.6023 7.7676 3.8894 5.7832 9.9323 9.9869 16.98 11.462h0.0391c0.6135 0.1305 1.227 0.2349 1.8403 0.3263h0.0784c0.4438 0.0653 0.8744 0.1175 1.3182 0.1566 0.2219 0.0262 0.4568 0.0392 0.6787 0.0523 0.1436 0 0.3001 0.013 0.4437 0.0261 0.3916 0.013 0.7962 0.0261 1.2009 0.0261 0.4306 0 0.8613 0 1.2921-0.0261h0.2087c0.4177-0.0261 0.8484-0.0522 1.2661-0.0914 0.0392 0 0.0914 0 0.1306-0.0131 0.3522-0.0391 0.7047-0.0783 1.044-0.1305 0.1306-0.013 0.2481-0.0391 0.3784-0.0522 0.3525-0.0522 0.6918-0.1175 1.0443-0.1827 0.1827-0.0392 0.3653-0.0784 0.548-0.1175 0.1697-0.0392 0.3264-0.0783 0.4961-0.1175 0.796-0.196 1.5792-0.4179 2.3492-0.6789h0.0392c2.4799-0.8617 4.8161-2.0628 6.9304-3.564l0.1436-0.0914c0.6135-0.4438 1.2007-0.9007 1.775-1.3968 0.1436-0.1175 0.2742-0.235 0.4177-0.3655 0.1306-0.1175 0.2611-0.235 0.3916-0.3525 0.2479-0.2351 0.4959-0.47 0.7439-0.705l0.2219-0.2219c0.2089-0.2089 0.4177-0.4308 0.6266-0.6527 0.0652-0.0784 0.1434-0.1568 0.2086-0.222 0.0392-0.0392 0.0784-0.0914 0.1175-0.1306-15.845 13.46-36.336-5.0652-27.709-20.94" fill="#F2F2F2"/>
<path d="m28.992 1.7832c-9.5147 0-17.881 4.8825-22.749 12.284-0.79614 1.2011-1.5009 2.4804-2.1013 3.8251 7.1393 5.1697 15.244 2.6762 21.574 0.0261 7.1262-2.9765 18.729-4.765 26.364 5.6526-2.7539-2.7284-6.6432-4.2819-10.82-3.9425-7.583 0.6267-13.234 7.2846-12.608 14.87 0.6263 7.5847 7.2698 13.094 14.866 12.611 4.8812-0.3133 12.673-4.8826 12.673-18.094 0-15.039-12.177-27.219-27.213-27.219" fill="#bbb"/>
<path d="m267.29 19.644c0.386-0.2459 0.842-0.4039 1.334-0.4917s0.983-0.1229 1.457-0.1229c0.931 0 1.897 0.2283 2.898 0.7024 1 0.4741 1.808 1.0889 2.423 1.8791l4.6-4.8645c-1.317-1.2119-2.862-2.1252-4.618-2.7398s-3.477-0.9309-5.18-0.9309c-1.404 0-2.809 0.1756-4.179 0.527-1.387 0.3512-2.616 0.9131-3.722 1.6684-1.106 0.7551-1.984 1.7387-2.669 2.9152-0.667 1.1767-1.018 2.5993-1.018 4.2677 0 1.3521 0.211 2.4938 0.65 3.4422 0.439 0.9482 1.018 1.7387 1.738 2.4059 0.72 0.6673 1.527 1.2119 2.441 1.6333 0.912 0.4215 1.843 0.7902 2.809 1.089 0.983 0.3161 1.861 0.597 2.634 0.8604 0.772 0.2634 1.422 0.5619 1.948 0.8958 0.527 0.3161 0.914 0.6848 1.194 1.0712 0.281 0.4038 0.422 0.8782 0.422 1.4401 0 0.597-0.106 1.1065-0.334 1.5279-0.228 0.4215-0.526 0.7551-0.913 1.0185-0.386 0.2459-0.825 0.4392-1.334 0.5446s-1.019 0.1756-1.563 0.1756c-1.176 0-2.37-0.2985-3.564-0.9133-1.194-0.5971-2.16-1.3522-2.897-2.2655l-4.723 4.8121c1.316 1.3872 2.985 2.441 4.986 3.1963 2.002 0.7376 4.073 1.1239 6.216 1.1239 1.457 0 2.879-0.1932 4.266-0.5971 1.387-0.3863 2.599-1.0011 3.67-1.8089 1.071-0.8079 1.931-1.844 2.563-3.1085 0.632-1.247 0.948-2.7396 0.948-4.4607 0-1.4928-0.298-2.7398-0.877-3.7409-0.597-1.0009-1.335-1.844-2.248-2.5113-0.895-0.6673-1.896-1.2119-3.002-1.6158-1.106-0.4038-2.16-0.7902-3.161-1.124-0.702-0.2283-1.334-0.439-1.896-0.6497s-1.053-0.439-1.457-0.7024c-0.404-0.2459-0.72-0.5446-0.931-0.8958-0.21-0.3336-0.316-0.7551-0.316-1.2645 0-0.5971 0.14-1.0712 0.404-1.4575 0.263-0.3866 0.597-0.6851 1.001-0.9309z" fill="#515151"/>
<path d="m309.43 31.918h5.706v5.4443c-0.649 0.2809-1.352 0.4917-2.107 0.6146s-1.562 0.1931-2.405 0.1931c-1.458 0-2.774-0.2282-3.916-0.7024-1.141-0.4565-2.089-1.1064-2.879-1.9493-0.773-0.8256-1.352-1.8265-1.756-2.9857-0.404-1.1589-0.597-2.4235-0.597-3.7934s0.211-2.5991 0.65-3.7407 1.053-2.125 1.843-2.9505c0.79-0.8253 1.721-1.4752 2.792-1.9494 1.071-0.4565 2.23-0.7024 3.512-0.7024 1.457 0 2.774 0.2634 3.933 0.7902 1.158 0.5268 2.089 1.1943 2.791 2.0021l4.565-5.1984c-1.264-1.2117-2.914-2.1777-4.933-2.8976-2.019-0.7202-4.214-1.0714-6.585-1.0714-2.37 0-4.407 0.3687-6.373 1.0889-1.967 0.7375-3.687 1.7738-5.145 3.1435-1.457 1.3699-2.616 3.0207-3.441 4.9701s-1.247 4.1097-1.247 6.4981 0.404 4.5136 1.229 6.4454c0.808 1.9318 1.949 3.5826 3.407 4.9699 1.457 1.3874 3.178 2.4413 5.197 3.2139 2.019 0.7553 4.214 1.1416 6.602 1.1416s4.442-0.2458 6.408-0.7199c1.949-0.4744 3.67-1.1065 5.127-1.8618v-15.841h-12.326v5.8306l-0.052 0.0175z" fill="#515151"/>
<path d="m348.81 32.41c-0.421 1.1416-1.018 2.125-1.773 2.933-0.755 0.8253-1.668 1.4577-2.704 1.9318-1.036 0.4565-2.195 0.7024-3.459 0.7024s-2.423-0.2283-3.459-0.7024c-1.036-0.4566-1.931-1.1065-2.686-1.9318-0.755-0.808-1.335-1.7914-1.756-2.933s-0.632-2.3884-0.632-3.7407 0.211-2.5113 0.614-3.6354c0.404-1.124 1.001-2.0898 1.756-2.8978 0.755-0.8077 1.651-1.4399 2.704-1.8967 1.036-0.4741 2.195-0.7024 3.459-0.7024s2.423 0.2283 3.477 0.7024c1.053 0.4568 1.949 1.089 2.703 1.8967 0.738 0.808 1.335 1.7738 1.756 2.8978 0.422 1.1241 0.632 2.3357 0.632 3.6354s-0.21 2.5991-0.632 3.7407zm3.74-15.156c-1.457-1.3521-3.178-2.3884-5.18-3.1259-2.001-0.7378-4.161-1.1065-6.496-1.1065s-4.495 0.3687-6.479 1.1065c-1.984 0.7375-3.705 1.7738-5.144 3.1259-1.458 1.3523-2.581 2.9856-3.407 4.9174-0.807 1.9318-1.229 4.0922-1.229 6.4805 0 2.3884 0.404 4.5312 1.229 6.4806 0.826 1.9493 1.949 3.6353 3.407 5.0225 1.457 1.3875 3.16 2.4764 5.144 3.2315 1.984 0.7553 4.144 1.1416 6.479 1.1416s4.512-0.3863 6.496-1.1416c2.002-0.7551 3.723-1.844 5.18-3.2315 1.457-1.3872 2.581-3.0732 3.406-5.0225 0.808-1.9494 1.229-4.1273 1.229-6.4806 0-2.3532-0.403-4.5487-1.229-6.4805-0.807-1.9318-1.949-3.5651-3.406-4.9174z" fill="#515151"/>
<path d="m375.69 24.863c-0.316 0.4741-0.737 0.8431-1.246 1.1065-0.51 0.2458-1.072 0.4214-1.704 0.5268-0.614 0.1053-1.229 0.1405-1.826 0.1405h-3.441v-6.9722h3.863c0.544 0 1.088 0.0351 1.668 0.1229 0.579 0.0878 1.106 0.2458 1.58 0.4917 0.457 0.246 0.843 0.5797 1.141 1.0187 0.299 0.439 0.439 1.0011 0.439 1.7035 0 0.7551-0.158 1.3875-0.491 1.8616m6.004 3.1261c1.106-1.3875 1.651-3.091 1.651-5.1106 0-1.7211-0.316-3.1612-0.966-4.3029-0.649-1.1589-1.51-2.0898-2.598-2.7922-1.089-0.7024-2.318-1.1943-3.67-1.4928-1.369-0.2986-2.756-0.439-4.196-0.439h-11.396v29.908h7.059v-11.872h2.458l6.496 11.872h8.446l-7.814-12.803c1.949-0.5971 3.459-1.5804 4.566-2.9503" fill="#515151"/>
<path d="m408.57 13.852h-24.108v6.1642h8.445v23.727h7.217v-23.727h8.446v-6.1642z" fill="#515151"/>
<path d="m416.14 32.099 3.811-10.274 3.723 10.274h-7.534zm7.427-18.247h-7.004l-12.537 29.908h7.865l2.196-5.8659h11.57l2.318 5.8659h8.023l-12.413-29.908h-0.018z" fill="#515151"/>
<path d="m290.45 13.852h-7.27v4.4255h7.27v-4.4255z" fill="#515151"/>
<path d="m290.45 20.102h-7.27v23.656h7.27v-23.656z" fill="#515151"/>
<path d="m64 19.186h8.4453v23.744h7.2163v-23.744h8.463v-6.1643h-24.125v6.1643z" fill="#515151"/>
<path d="m137.41 24.049c-0.316 0.4741-0.738 0.843-1.247 1.0888-0.509 0.2635-1.071 0.4215-1.703 0.5269-0.615 0.1054-1.229 0.1405-1.826 0.1405h-3.441v-6.9722h3.862c0.545 0 1.089 0.0351 1.686 0.1229 0.579 0.0879 1.106 0.2459 1.562 0.4918 0.475 0.2459 0.843 0.5795 1.142 1.0186 0.298 0.439 0.439 1.0011 0.439 1.7035 0 0.7552-0.158 1.3874-0.492 1.8616m9.236 18.897-7.814-12.803c1.949-0.5972 3.459-1.5806 4.566-2.9505 1.106-1.3874 1.65-3.0909 1.65-5.1105 0-1.7211-0.316-3.1612-0.966-4.3028-0.649-1.1591-1.51-2.0899-2.598-2.7924-1.089-0.7024-2.3-1.1942-3.67-1.4927-1.37-0.2986-2.774-0.4391-4.196-0.4391h-11.395v29.908h7.058v-11.872h2.458l6.496 11.872h8.446l-0.035-0.0175z" fill="#515151"/>
<path d="m162.75 26.79 12.871-13.769h-9.043l-10.675 12.171h-0.123v-12.171h-7.058v29.908h7.058v-13.769h0.07l11.114 13.769h9.411l-13.625-16.14z" fill="#515151"/>
<path d="m197.44 42.93h7.217v-12.68l11.501-17.228h-8.446l-6.391 11.064-6.373-11.064h-8.744l11.236 17.228v12.68z" fill="#515151"/>
<path d="m238.26 36.766h-13.905v-6.2171h12.431v-5.7779h-12.431v-5.6726h13.133v-6.0765h-20.085v29.908h20.857v-6.1642z" fill="#515151"/>
<path d="m110.02 42.842c1.598-0.597 2.95-1.4226 4.073-2.4762 1.124-1.0538 1.984-2.3181 2.599-3.7934 0.614-1.4752 0.913-3.1085 0.913-4.9174v-12.364h-7.216v11.784c0 0.8078-0.106 1.5806-0.299 2.3181-0.193 0.7376-0.527 1.3875-0.966 1.967-0.456 0.5795-1.036 1.0362-1.756 1.3699-0.719 0.3336-1.58 0.5092-2.598 0.5092s-1.879-0.1756-2.599-0.5092c-0.719-0.3337-1.299-0.7904-1.738-1.3699-0.4388-0.5795-0.7549-1.2294-0.9657-1.967-0.2105-0.7375-0.3158-1.5103-0.3158-2.3181v-11.784h-7.1814v12.364c0 1.8089 0.2985 3.4422 0.8956 4.9174 0.597 1.4753 1.4397 2.7396 2.5284 3.7934 1.0885 1.0536 2.4404 1.8792 4.0208 2.4762 1.5801 0.5973 3.3531 0.8958 5.3201 0.8958 1.966 0 3.705-0.2985 5.302-0.8958" fill="#515151"/>
<path d="m184.98 13.022h-7.271v4.4432h7.271v-4.4432z" fill="#515151"/>
<path d="m99.137 13.022h-7.1829v4.4432h7.1829v-4.4432z" fill="#515151"/>
<path d="m117.61 13.022h-7.183v4.4432h7.183v-4.4432z" fill="#515151"/>
<path d="m184.98 19.275h-7.271v23.656h7.271v-23.656z" fill="#515151"/>
</svg>
